<svg width="88" height="100" viewBox="0 0 88 100" fill="none" xmlns="http://www.w3.org/2000/svg">
<path d="M17.5115 11.0106C17.5115 11.2432 17.501 11.4018 17.5115 11.5603C17.9136 15.9585 18.3157 20.3567 18.7072 24.7655C19.2575 31.0033 19.7971 37.2411 20.3474 43.4684C20.9717 50.4674 21.6066 57.4559 22.2097 64.4549C22.2521 64.9624 22.4319 65.1844 22.9081 65.3113C29.6803 67.1721 36.4313 69.0434 43.2034 70.8936C43.6584 71.0205 44.2087 71.0416 44.6637 70.9148C51.457 69.054 58.2397 67.1615 65.0331 65.2902C65.5516 65.1421 65.7315 64.9095 65.7738 64.3809C65.9854 61.7378 66.2394 59.0841 66.4722 56.4409C66.8637 52.0639 67.2446 47.6868 67.6361 43.3098C68.0911 38.1715 68.5567 33.0438 69.0117 27.9055C69.3503 24.0783 69.7101 20.2616 70.0487 16.4343C70.2074 14.637 70.345 12.8396 70.4931 11H17.5115V11.0106ZM60.2714 26.2774C59.9222 30.1469 59.573 34.0271 59.2238 37.8966C58.8217 42.3477 58.4196 46.7987 58.0175 51.2392C57.9011 52.5185 57.7318 53.7978 57.7001 55.0876C57.6789 55.7748 57.3826 55.9546 56.8112 56.1132C52.7268 57.2127 48.6529 58.344 44.579 59.4647C44.3991 59.5175 44.2298 59.581 44.05 59.6338C43.9865 59.6021 43.923 59.581 43.8489 59.5492C39.4893 58.3651 35.1297 57.1704 30.7702 55.9651C30.5903 55.9123 30.3575 55.6268 30.3363 55.4259C30.0295 52.1273 29.7543 48.8287 29.4581 45.4666H36.1138C36.2302 46.7882 36.3572 48.1309 36.463 49.4842C36.5582 50.7317 36.5477 50.7317 37.7222 51.0489C39.8279 51.6092 41.9442 52.159 44.05 52.7088L44.0288 52.6559C46.3356 52.0427 48.6423 51.4401 50.9491 50.7846C51.1607 50.7212 51.4041 50.3828 51.4358 50.1502C51.5734 49.1353 51.6475 48.1097 51.7321 47.0948C51.8697 45.456 52.0072 43.8173 52.1554 42.1045H44.0288L44.05 42.0622C43.997 42.0622 43.9336 42.0622 43.8806 42.0622H29.1512C28.9501 39.8737 28.7597 37.7063 28.5586 35.4755H43.8912C43.9441 35.4755 44.0076 35.4755 44.0605 35.4755L44.0394 35.4332H52.7479C52.949 33.1601 53.15 30.9399 53.3511 28.6773H44.0288L44.05 28.635C43.997 28.635 43.9336 28.635 43.8806 28.635C38.664 28.6456 33.4473 28.6456 28.2306 28.6562C28.1565 28.6562 28.0825 28.6245 27.9449 28.5822C27.7544 26.4254 27.5534 24.2686 27.3629 22.0483H43.8806C43.9336 22.0483 43.997 22.0483 44.05 22.0483L44.0288 22.006H60.6206C60.5042 23.4862 60.3878 24.8818 60.2714 26.2774Z" fill="white"/>
<path d="M28.528 90.368C28.528 89.2587 28.768 88.272 29.248 87.408C29.728 86.5333 30.3947 85.856 31.248 85.376C32.112 84.8853 33.088 84.64 34.176 84.64C35.5093 84.64 36.6507 84.992 37.6 85.696C38.5493 86.4 39.184 87.36 39.504 88.576H36.496C36.272 88.1067 35.952 87.7493 35.536 87.504C35.1307 87.2587 34.6667 87.136 34.144 87.136C33.3013 87.136 32.6187 87.4293 32.096 88.016C31.5733 88.6027 31.312 89.3867 31.312 90.368C31.312 91.3493 31.5733 92.1333 32.096 92.72C32.6187 93.3067 33.3013 93.6 34.144 93.6C34.6667 93.6 35.1307 93.4773 35.536 93.232C35.952 92.9867 36.272 92.6293 36.496 92.16H39.504C39.184 93.376 38.5493 94.336 37.6 95.04C36.6507 95.7333 35.5093 96.08 34.176 96.08C33.088 96.08 32.112 95.84 31.248 95.36C30.3947 94.8693 29.728 94.192 29.248 93.328C28.768 92.464 28.528 91.4773 28.528 90.368ZM45.2435 96.112C44.4222 96.112 43.6862 95.9787 43.0355 95.712C42.3848 95.4453 41.8622 95.0507 41.4675 94.528C41.0835 94.0053 40.8808 93.376 40.8595 92.64H43.7715C43.8142 93.056 43.9582 93.376 44.2035 93.6C44.4488 93.8133 44.7688 93.92 45.1635 93.92C45.5688 93.92 45.8888 93.8293 46.1235 93.648C46.3582 93.456 46.4755 93.1947 46.4755 92.864C46.4755 92.5867 46.3795 92.3573 46.1875 92.176C46.0062 91.9947 45.7768 91.8453 45.4995 91.728C45.2328 91.6107 44.8488 91.4773 44.3475 91.328C43.6222 91.104 43.0302 90.88 42.5715 90.656C42.1128 90.432 41.7182 90.1013 41.3875 89.664C41.0568 89.2267 40.8915 88.656 40.8915 87.952C40.8915 86.9067 41.2702 86.0907 42.0275 85.504C42.7848 84.9067 43.7715 84.608 44.9875 84.608C46.2248 84.608 47.2222 84.9067 47.9795 85.504C48.7368 86.0907 49.1422 86.912 49.1955 87.968H46.2355C46.2142 87.6053 46.0808 87.3227 45.8355 87.12C45.5902 86.9067 45.2755 86.8 44.8915 86.8C44.5608 86.8 44.2942 86.8907 44.0915 87.072C43.8888 87.2427 43.7875 87.4933 43.7875 87.824C43.7875 88.1867 43.9582 88.4693 44.2995 88.672C44.6408 88.8747 45.1742 89.0933 45.8995 89.328C46.6248 89.5733 47.2115 89.808 47.6595 90.032C48.1182 90.256 48.5128 90.5813 48.8435 91.008C49.1742 91.4347 49.3395 91.984 49.3395 92.656C49.3395 93.296 49.1742 93.8773 48.8435 94.4C48.5235 94.9227 48.0542 95.3387 47.4355 95.648C46.8168 95.9573 46.0862 96.112 45.2435 96.112ZM55.0873 96.112C54.2659 96.112 53.5299 95.9787 52.8793 95.712C52.2286 95.4453 51.7059 95.0507 51.3113 94.528C50.9273 94.0053 50.7246 93.376 50.7033 92.64H53.6153C53.6579 93.056 53.8019 93.376 54.0473 93.6C54.2926 93.8133 54.6126 93.92 55.0073 93.92C55.4126 93.92 55.7326 93.8293 55.9673 93.648C56.2019 93.456 56.3193 93.1947 56.3193 92.864C56.3193 92.5867 56.2233 92.3573 56.0313 92.176C55.8499 91.9947 55.6206 91.8453 55.3433 91.728C55.0766 91.6107 54.6926 91.4773 54.1913 91.328C53.4659 91.104 52.8739 90.88 52.4153 90.656C51.9566 90.432 51.5619 90.1013 51.2313 89.664C50.9006 89.2267 50.7353 88.656 50.7353 87.952C50.7353 86.9067 51.1139 86.0907 51.8713 85.504C52.6286 84.9067 53.6153 84.608 54.8313 84.608C56.0686 84.608 57.0659 84.9067 57.8233 85.504C58.5806 86.0907 58.9859 86.912 59.0393 87.968H56.0793C56.0579 87.6053 55.9246 87.3227 55.6793 87.12C55.4339 86.9067 55.1193 86.8 54.7352 86.8C54.4046 86.8 54.1379 86.8907 53.9353 87.072C53.7326 87.2427 53.6313 87.4933 53.6313 87.824C53.6313 88.1867 53.8019 88.4693 54.1432 88.672C54.4846 88.8747 55.0179 89.0933 55.7433 89.328C56.4686 89.5733 57.0553 89.808 57.5033 90.032C57.9619 90.256 58.3566 90.5813 58.6873 91.008C59.0179 91.4347 59.1833 91.984 59.1833 92.656C59.1833 93.296 59.0179 93.8773 58.6873 94.4C58.3673 94.9227 57.8979 95.3387 57.2793 95.648C56.6606 95.9573 55.9299 96.112 55.0873 96.112Z" fill="white"/>
</svg>
