<svg width="88" height="100" viewBox="0 0 88 100" fill="none" xmlns="http://www.w3.org/2000/svg">
<path d="M23.6492 50.1719L29.5806 12.1632C29.7851 10.8679 31.5236 10.5611 32.1372 11.7201L38.5117 23.6511L23.6492 50.1719ZM65.8166 59.4099L60.1579 24.401C59.9875 23.3102 58.624 22.867 57.8399 23.6511L22.1833 59.4099L41.9206 70.4887C43.1478 71.1704 44.6818 71.1704 45.909 70.4887L65.8166 59.4099ZM49.795 28.8666L45.2272 20.174C44.7159 19.1855 43.3182 19.1855 42.8069 20.174L22.7288 55.967L49.795 28.8666Z" fill="white"/>
<path d="M16.804 84.768V86.96H12.228V89.328H15.652V91.456H12.228V96H9.492V84.768H16.804ZM19.618 86.144C19.138 86.144 18.7433 86.0053 18.434 85.728C18.1353 85.44 17.986 85.088 17.986 84.672C17.986 84.2453 18.1353 83.8933 18.434 83.616C18.7433 83.328 19.138 83.184 19.618 83.184C20.0873 83.184 20.4713 83.328 20.77 83.616C21.0793 83.8933 21.234 84.2453 21.234 84.672C21.234 85.088 21.0793 85.44 20.77 85.728C20.4713 86.0053 20.0873 86.144 19.618 86.144ZM20.978 87.072V96H18.242V87.072H20.978ZM25.6968 88.56C26.0168 88.0693 26.4168 87.6853 26.8968 87.408C27.3768 87.12 27.9101 86.976 28.4968 86.976V89.872H27.7448C27.0621 89.872 26.5501 90.0213 26.2088 90.32C25.8674 90.608 25.6968 91.12 25.6968 91.856V96H22.9608V87.072H25.6968V88.56ZM38.2205 91.392C38.2205 91.648 38.2045 91.9147 38.1725 92.192H31.9805C32.0232 92.7467 32.1992 93.1733 32.5085 93.472C32.8285 93.76 33.2178 93.904 33.6765 93.904C34.3592 93.904 34.8338 93.616 35.1005 93.04H38.0125C37.8632 93.6267 37.5912 94.1547 37.1965 94.624C36.8125 95.0933 36.3272 95.4613 35.7405 95.728C35.1538 95.9947 34.4978 96.128 33.7725 96.128C32.8978 96.128 32.1192 95.9413 31.4365 95.568C30.7538 95.1947 30.2205 94.6613 29.8365 93.968C29.4525 93.2747 29.2605 92.464 29.2605 91.536C29.2605 90.608 29.4472 89.7973 29.8205 89.104C30.2045 88.4107 30.7378 87.8773 31.4205 87.504C32.1032 87.1307 32.8872 86.944 33.7725 86.944C34.6365 86.944 35.4045 87.1253 36.0765 87.488C36.7485 87.8507 37.2712 88.368 37.6445 89.04C38.0285 89.712 38.2205 90.496 38.2205 91.392ZM35.4205 90.672C35.4205 90.2027 35.2605 89.8293 34.9405 89.552C34.6205 89.2747 34.2205 89.136 33.7405 89.136C33.2818 89.136 32.8925 89.2693 32.5725 89.536C32.2632 89.8027 32.0712 90.1813 31.9965 90.672H35.4205ZM42.3999 88.336C42.6559 87.92 43.0239 87.584 43.5039 87.328C43.9839 87.072 44.5332 86.944 45.1519 86.944C45.8879 86.944 46.5545 87.1307 47.1519 87.504C47.7492 87.8773 48.2185 88.4107 48.5599 89.104C48.9119 89.7973 49.0879 90.6027 49.0879 91.52C49.0879 92.4373 48.9119 93.248 48.5599 93.952C48.2185 94.6453 47.7492 95.184 47.1519 95.568C46.5545 95.9413 45.8879 96.128 45.1519 96.128C44.5225 96.128 43.9732 96.0053 43.5039 95.76C43.0345 95.504 42.6665 95.168 42.3999 94.752V96H39.6639V84.16H42.3999V88.336ZM46.3039 91.52C46.3039 90.8373 46.1119 90.304 45.7279 89.92C45.3545 89.5253 44.8905 89.328 44.3359 89.328C43.7919 89.328 43.3279 89.5253 42.9439 89.92C42.5705 90.3147 42.3839 90.8533 42.3839 91.536C42.3839 92.2187 42.5705 92.7573 42.9439 93.152C43.3279 93.5467 43.7919 93.744 44.3359 93.744C44.8799 93.744 45.3439 93.5467 45.7279 93.152C46.1119 92.7467 46.3039 92.2027 46.3039 91.52ZM49.9793 91.52C49.9793 90.6027 50.1499 89.7973 50.4913 89.104C50.8433 88.4107 51.3179 87.8773 51.9153 87.504C52.5126 87.1307 53.1793 86.944 53.9153 86.944C54.5446 86.944 55.0939 87.072 55.5633 87.328C56.0433 87.584 56.4113 87.92 56.6673 88.336V87.072H59.4033V96H56.6673V94.736C56.4006 95.152 56.0273 95.488 55.5473 95.744C55.0779 96 54.5286 96.128 53.8993 96.128C53.1739 96.128 52.5126 95.9413 51.9153 95.568C51.3179 95.184 50.8433 94.6453 50.4913 93.952C50.1499 93.248 49.9793 92.4373 49.9793 91.52ZM56.6673 91.536C56.6673 90.8533 56.4753 90.3147 56.0913 89.92C55.7179 89.5253 55.2593 89.328 54.7153 89.328C54.1713 89.328 53.7073 89.5253 53.3233 89.92C52.9499 90.304 52.7633 90.8373 52.7633 91.52C52.7633 92.2027 52.9499 92.7467 53.3233 93.152C53.7073 93.5467 54.1713 93.744 54.7153 93.744C55.2593 93.744 55.7179 93.5467 56.0913 93.152C56.4753 92.7573 56.6673 92.2187 56.6673 91.536ZM65.0146 96.128C64.236 96.128 63.5426 95.9947 62.9346 95.728C62.3266 95.4613 61.8466 95.0987 61.4946 94.64C61.1426 94.1707 60.9453 93.648 60.9026 93.072H63.6066C63.6386 93.3813 63.7826 93.632 64.0386 93.824C64.2946 94.016 64.6093 94.112 64.9826 94.112C65.324 94.112 65.5853 94.048 65.7666 93.92C65.9586 93.7813 66.0546 93.6053 66.0546 93.392C66.0546 93.136 65.9213 92.9493 65.6546 92.832C65.388 92.704 64.956 92.5653 64.3586 92.416C63.7186 92.2667 63.1853 92.112 62.7586 91.952C62.332 91.7813 61.964 91.52 61.6546 91.168C61.3453 90.8053 61.1906 90.32 61.1906 89.712C61.1906 89.2 61.3293 88.736 61.6066 88.32C61.8946 87.8933 62.3106 87.5573 62.8546 87.312C63.4093 87.0667 64.0653 86.944 64.8226 86.944C65.9426 86.944 66.8226 87.2213 67.4626 87.776C68.1133 88.3307 68.4866 89.0667 68.5826 89.984H66.0546C66.012 89.6747 65.8733 89.4293 65.6386 89.248C65.4146 89.0667 65.116 88.976 64.7426 88.976C64.4226 88.976 64.1773 89.04 64.0066 89.168C63.836 89.2853 63.7506 89.4507 63.7506 89.664C63.7506 89.92 63.884 90.112 64.1506 90.24C64.428 90.368 64.8546 90.496 65.4306 90.624C66.092 90.7947 66.6306 90.9653 67.0466 91.136C67.4626 91.296 67.8253 91.5627 68.1346 91.936C68.4546 92.2987 68.62 92.7893 68.6306 93.408C68.6306 93.9307 68.4813 94.4 68.1826 94.816C67.8946 95.2213 67.4733 95.5413 66.9186 95.776C66.3746 96.0107 65.74 96.128 65.0146 96.128ZM78.7205 91.392C78.7205 91.648 78.7045 91.9147 78.6725 92.192H72.4805C72.5232 92.7467 72.6992 93.1733 73.0085 93.472C73.3285 93.76 73.7178 93.904 74.1765 93.904C74.8592 93.904 75.3338 93.616 75.6005 93.04H78.5125C78.3632 93.6267 78.0912 94.1547 77.6965 94.624C77.3125 95.0933 76.8272 95.4613 76.2405 95.728C75.6538 95.9947 74.9978 96.128 74.2725 96.128C73.3978 96.128 72.6192 95.9413 71.9365 95.568C71.2538 95.1947 70.7205 94.6613 70.3365 93.968C69.9525 93.2747 69.7605 92.464 69.7605 91.536C69.7605 90.608 69.9472 89.7973 70.3205 89.104C70.7045 88.4107 71.2378 87.8773 71.9205 87.504C72.6032 87.1307 73.3872 86.944 74.2725 86.944C75.1365 86.944 75.9045 87.1253 76.5765 87.488C77.2485 87.8507 77.7712 88.368 78.1445 89.04C78.5285 89.712 78.7205 90.496 78.7205 91.392ZM75.9205 90.672C75.9205 90.2027 75.7605 89.8293 75.4405 89.552C75.1205 89.2747 74.7205 89.136 74.2405 89.136C73.7818 89.136 73.3925 89.2693 73.0725 89.536C72.7632 89.8027 72.5712 90.1813 72.4965 90.672H75.9205Z" fill="white"/>
</svg>
