<svg width="88" height="100" viewBox="0 0 88 100" fill="none" xmlns="http://www.w3.org/2000/svg">
<path d="M72.8784 38.3573L46.6468 12.1256C45.146 10.6248 42.6663 10.6248 41.1655 12.1256L35.7495 17.5416L42.6663 24.4584C44.2977 23.9364 46.1247 24.2626 47.3646 25.5677C48.6696 26.8728 48.9959 28.6998 48.4739 30.3312L55.1296 36.987C56.761 36.4649 58.588 36.7912 59.8931 38.0963C61.7202 39.8581 61.7202 42.7945 59.8931 44.6215C58.066 46.4486 55.1949 46.4486 53.3678 44.6215C51.9975 43.2512 51.6712 41.2936 52.389 39.5971L46.19 33.398V49.7113C46.6468 49.907 47.0383 50.2333 47.4298 50.5595C49.2569 52.3214 49.2569 55.2578 47.4298 57.0848C45.6027 58.8467 42.7316 58.8467 40.9045 57.0848C39.0774 55.2578 39.0774 52.3866 40.9045 50.5595C41.3613 50.1028 41.8833 49.7765 42.4053 49.5808V33.0718C41.8833 32.876 41.3613 32.4845 40.9045 32.093C39.5342 30.7227 39.2079 28.7651 39.9257 27.0685L33.0742 20.2822L15.1296 38.2268C13.6288 39.7276 13.6288 42.2072 15.1296 43.708L41.296 69.8744C42.7969 71.3752 45.2765 71.3752 46.7773 69.8744L72.8132 43.8385C74.3792 42.2724 74.3792 39.8581 72.8784 38.3573Z" fill="white"/>
<path d="M38.948 88.32C38.7453 87.9467 38.452 87.664 38.068 87.472C37.6947 87.2693 37.252 87.168 36.74 87.168C35.8547 87.168 35.1453 87.4613 34.612 88.048C34.0787 88.624 33.812 89.3973 33.812 90.368C33.812 91.4027 34.0893 92.2133 34.644 92.8C35.2093 93.376 35.9827 93.664 36.964 93.664C37.636 93.664 38.2013 93.4933 38.66 93.152C39.1293 92.8107 39.4707 92.32 39.684 91.68H36.212V89.664H42.164V92.208C41.9613 92.8907 41.6147 93.5253 41.124 94.112C40.644 94.6987 40.0307 95.1733 39.284 95.536C38.5373 95.8987 37.6947 96.08 36.756 96.08C35.6467 96.08 34.6547 95.84 33.78 95.36C32.916 94.8693 32.2387 94.192 31.748 93.328C31.268 92.464 31.028 91.4773 31.028 90.368C31.028 89.2587 31.268 88.272 31.748 87.408C32.2387 86.5333 32.916 85.856 33.78 85.376C34.644 84.8853 35.6307 84.64 36.74 84.64C38.084 84.64 39.2147 84.9653 40.132 85.616C41.06 86.2667 41.6733 87.168 41.972 88.32H38.948ZM46.4155 84.768V96H43.6795V84.768H46.4155ZM56.4783 84.768V86.96H53.5023V96H50.7663V86.96H47.7903V84.768H56.4783Z" fill="white"/>
</svg>
