<svg width="79" height="138" viewBox="0 0 79 138" fill="none" xmlns="http://www.w3.org/2000/svg">
<rect x="0.5" y="0.5" width="78" height="137" rx="4.5" stroke="#9747FF" stroke-dasharray="10 5"/>
<rect x="21" y="21" width="37" height="37" rx="18.5" stroke="white" stroke-width="2"/>
<path d="M38 35.828L33.343 40.485C32.9525 40.8755 32.3194 40.8755 31.929 40.485C31.5385 40.0945 31.5385 39.4615 31.929 39.071L38.2928 32.7071C38.6834 32.3166 39.3165 32.3166 39.7071 32.7071L46.071 39.071C46.4614 39.4615 46.4614 40.0945 46.071 40.485C45.6805 40.8755 45.0474 40.8755 44.657 40.485L40 35.828L40 47C40 47.5523 39.5522 48 39 48C38.4477 48 38 47.5523 38 47L38 35.828Z" fill="white"/>
<rect x="21" y="80" width="37" height="37" rx="18.5" stroke="#70E61C" stroke-width="2"/>
<path d="M38 94.828L33.343 99.485C32.9525 99.8755 32.3194 99.8755 31.929 99.485C31.5385 99.0945 31.5385 98.4615 31.929 98.071L38.2928 91.7071C38.6834 91.3166 39.3165 91.3166 39.7071 91.7071L46.071 98.071C46.4614 98.4615 46.4614 99.0945 46.071 99.485C45.6805 99.8755 45.0474 99.8755 44.657 99.485L40 94.828L40 106C40 106.552 39.5522 107 39 107C38.4477 107 38 106.552 38 106L38 94.828Z" fill="#70E61C"/>
</svg>
