<svg width="88" height="101" viewBox="0 0 88 101" fill="none" xmlns="http://www.w3.org/2000/svg">
<path d="M36.7256 65.8917C32.6823 64.7545 29.1263 62.6607 26.0216 59.7365C25.0469 60.0794 24.0541 60.4224 23.0433 60.7473C22.574 60.8917 22.1046 60.8375 21.6173 60.657C20.7509 60.3321 20.2274 59.7004 19.8483 58.9242C19.3249 57.8953 18.657 56.9567 18.1335 55.9278C17.6642 54.9711 16.9783 54.1408 16.5812 53.148C16.3826 52.6607 15.8592 52.3357 15.8592 51.722C15.3898 50.9639 15.8411 50.296 16.1119 49.6282C16.1841 49.4477 16.2743 49.213 16.4368 49.1408C17.0866 48.852 17.4115 48.2022 17.953 47.8051C18.2057 47.6245 18.4765 47.426 18.7653 47.2094C18.3501 45.1336 17.9891 43.0578 17.9891 40.9278C17.9891 38.8159 18.3682 36.7762 18.7653 34.7545C18.0613 34.1047 17.4115 33.4729 16.7256 32.8773C16.0216 32.2635 15.6065 31.5054 15.6967 30.7112C15.7509 30.278 15.8772 29.8087 16.0938 29.4477C16.7617 28.3827 17.3754 27.2635 18.0252 26.1805C18.5487 25.3141 19 24.4116 19.5776 23.5632C19.8844 23.13 20.0649 22.6245 20.3718 22.1733C20.9675 21.3249 22.1588 20.9097 23.1335 21.1986C24 21.4513 24.8122 21.8303 25.6967 21.9928C25.787 22.0108 25.8592 22.1372 25.9494 22.2274C29.0722 19.3213 32.6281 17.2455 36.7075 16.0361C36.87 15.5487 36.9061 15.0253 37.1046 14.5199C37.2491 14.1408 37.213 13.6715 37.2852 13.2563C37.4837 12.1733 38.1516 11.5415 39.1083 11.2166C39.4512 11.1083 39.7942 11 40.2093 11C42.7364 11.0361 45.2635 11.0361 47.7906 11C48.5126 11 49.1263 11.2888 49.7039 11.6137C50.2274 11.8845 50.5162 12.4621 50.6606 13.0036C50.9133 13.9964 51.0577 15.0072 51.2563 16.0542C55.3176 17.2094 58.8736 19.2852 61.9783 22.2094C62.953 21.8664 63.9458 21.5235 64.9566 21.1986C65.426 21.0542 65.8953 21.1083 66.3826 21.2888C67.2491 21.6137 67.7725 22.2455 68.1516 23.0217C68.675 24.0505 69.3429 24.9892 69.8664 26.0181C70.3357 26.9747 71.0216 27.8051 71.4187 28.7978C71.6173 29.2852 72.1408 29.6101 72.1408 30.2238C72.6101 30.982 72.1588 31.6498 71.888 32.3177C71.8158 32.4982 71.7256 32.7329 71.5631 32.8051C70.9133 33.0939 70.5884 33.7437 70.0469 34.1408C69.7942 34.3213 69.5234 34.5199 69.2346 34.7365C69.6498 36.8123 70.0108 38.8881 70.0108 41.018C70.0108 43.13 69.6859 45.1697 69.2346 47.1913C69.9386 47.8412 70.5884 48.4729 71.2743 49.0686C71.9783 49.6823 72.3935 50.4404 72.3032 51.2347C72.2491 51.6679 72.1408 52.1372 71.9061 52.4982C71.2563 53.5451 70.6426 54.6282 70.0108 55.6931C69.2166 57.0108 68.5667 58.4368 67.6462 59.6823C67.4837 60.3682 66.8339 60.4224 66.3646 60.6751C65.8592 60.9458 65.3537 60.8736 64.7942 60.7112C63.9639 60.4765 63.1696 60.0614 62.3032 59.9531C62.213 59.935 62.1408 59.8087 62.0505 59.7184C58.9278 62.6607 55.3899 64.7545 51.2563 65.9278C51.0577 66.9025 50.8772 67.9134 50.6606 68.9061C50.444 69.8809 49.7942 70.4946 48.8736 70.7834C48.5306 70.8917 48.1696 71 47.7725 71C45.2454 70.9639 42.7184 70.9639 40.1913 71C39.4693 71 38.8556 70.7112 38.2779 70.3863C37.7545 70.1155 37.4476 69.5379 37.3393 68.9964C37.1407 67.9314 36.9422 66.9386 36.7256 65.8917ZM37.8989 49.9892C38.2599 49.7906 38.675 49.6643 38.6931 49.231C38.7292 48.5812 38.8195 47.9134 38.675 47.2996C38.4223 46.2527 37.9711 45.2419 37.7003 44.1949C37.5198 43.5271 37.1227 42.8953 37.1407 42.1733C36.5631 40.7473 36.2021 39.2491 35.7148 37.8051C35.3176 36.6137 35.0288 35.3863 34.5956 34.213C34.361 33.5632 34.3068 32.8412 33.8736 32.2635C33.8375 32.2094 33.8195 32.1733 33.8195 32.1733C33.3321 31.8484 32.8267 31.9567 32.3935 31.9567C32.1408 32.1913 31.9241 32.3899 31.7256 32.5704C31.7075 33.148 31.2924 33.5993 31.3646 34.1588C30.7328 35.5668 30.462 37.083 29.9386 38.5271C29.6678 39.2671 29.5054 40.0253 29.2888 40.7834C29.0902 41.5415 28.657 42.2274 28.657 43.0397C27.9711 44.574 27.6281 46.2166 27.1227 47.8231C26.9963 48.2202 26.9241 48.5993 27.1769 48.9783C27.2491 49.0866 27.213 49.2491 27.213 49.231C27.5018 49.5379 27.7184 49.7545 27.8989 49.9711C28.2418 49.9711 28.6028 49.9711 28.9819 49.9711C29.2346 49.6462 29.4873 49.3394 29.722 49.0325C29.6678 48.0036 29.8844 47.3177 30.3537 46.2166C32.1227 46.2166 33.8917 46.2166 35.6606 46.2166C35.805 46.7942 35.8772 47.3538 36.0758 47.8773C36.166 48.0939 36.2563 48.3105 36.2202 48.5271C36.166 49.1949 36.3826 49.7184 37.1407 49.9711C37.3213 49.9892 37.592 49.9892 37.8989 49.9892ZM42.1227 49.9892C42.6101 49.9531 43.1696 50.0975 43.5667 49.7004C43.7111 49.5199 43.8375 49.3394 44.018 49.0866C44.018 47.2816 44.018 45.3863 44.018 43.491C45.3357 43.491 46.6353 43.4368 47.9169 43.509C48.6931 43.5451 49.3249 43.3105 49.9386 42.9314C50.2274 42.7509 50.4801 42.4801 50.7328 42.2274C51.4007 41.5776 51.7256 40.7834 51.7436 39.8448C51.7436 38.3646 51.7436 36.9025 51.7436 35.4224C51.7436 35.2058 51.6895 34.9711 51.6353 34.7545C51.4368 33.9783 51.0216 33.4007 50.462 32.8953C49.8122 32.2996 49.0541 31.9386 48.1516 31.9386C46.1299 31.9386 44.1263 31.9386 42.0866 31.9386C41.888 32.1552 41.6895 32.3718 41.4548 32.5884C41.4548 38.148 41.4548 43.7437 41.4548 49.3574C41.6895 49.556 41.9061 49.7726 42.1227 49.9892ZM55.1191 49.9892C56.3646 49.9892 57.6281 49.9892 58.8736 49.9892C59.0902 49.7726 59.3068 49.556 59.5234 49.3574C59.5234 49.0144 59.5234 48.6895 59.5234 48.3466C59.5234 48.3105 59.5234 48.2924 59.5234 48.2744C59.2527 47.769 58.8375 47.4621 58.296 47.4079C58.296 43.0939 58.296 38.7978 58.296 34.5921C58.6931 34.3935 59.0361 34.213 59.4332 33.9964C59.4873 33.5271 59.5234 33.0397 59.5595 32.6968C59.2707 32.3718 59.0722 32.1372 58.9097 31.9567C57.6101 31.9567 56.3465 31.9567 55.2274 31.9567C54.9205 32.2274 54.7039 32.426 54.4332 32.6787C54.4873 33.1119 54.5595 33.5993 54.6137 34.0144C55.0469 34.231 55.3898 34.4116 55.6967 34.574C55.6967 38.87 55.6967 43.1661 55.6967 47.426C55.5162 47.4621 55.3176 47.426 55.2454 47.5162C54.9927 47.769 54.5595 47.8412 54.4693 48.2563C54.4693 48.6173 54.4693 48.9783 54.4693 49.3394C54.6859 49.556 54.9025 49.7726 55.1191 49.9892Z" fill="white"/>
<path d="M34.704 43.4546C33.639 43.4907 32.5198 43.5088 31.4007 43.5449C31.3646 43.5449 31.3105 43.6171 31.2021 43.7073C31.2202 42.5882 31.852 41.6857 31.9242 40.6568C32.4657 39.7543 32.5198 38.6893 32.8808 37.6785C32.9892 37.7868 33.1516 37.8951 33.1516 37.9853C33.1697 38.7615 33.6209 39.4294 33.7653 40.1694C33.8736 40.6749 34.1624 41.1622 34.2346 41.6676C34.3068 42.3175 34.7401 42.8048 34.704 43.4546Z" fill="white"/>
<path d="M49.2347 39.9534C49.1083 40.1519 49 40.3505 48.8556 40.531C48.6029 40.8198 48.278 40.9823 47.8628 40.9642C46.5993 40.9462 45.3358 40.9642 44.0361 40.9642C44.0361 38.8162 44.0361 36.6682 44.0361 34.466C45.3538 34.466 46.7076 34.448 48.0434 34.466C48.6751 34.4841 49.2166 35.1339 49.2347 35.8198C49.2347 36.957 49.2347 38.0942 49.2347 39.2314C49.2347 39.4841 49.2347 39.7187 49.2347 39.9534Z" fill="white"/>
<path d="M14.22 96L11.884 91.76H11.228V96H8.492V84.768H13.084C13.9693 84.768 14.7213 84.9227 15.34 85.232C15.9693 85.5413 16.4387 85.968 16.748 86.512C17.0573 87.0453 17.212 87.6427 17.212 88.304C17.212 89.0507 16.9987 89.7173 16.572 90.304C16.156 90.8907 15.5373 91.3067 14.716 91.552L17.308 96H14.22ZM11.228 89.824H12.924C13.4253 89.824 13.7987 89.7013 14.044 89.456C14.3 89.2107 14.428 88.864 14.428 88.416C14.428 87.9893 14.3 87.6533 14.044 87.408C13.7987 87.1627 13.4253 87.04 12.924 87.04H11.228V89.824ZM27.3455 91.392C27.3455 91.648 27.3295 91.9147 27.2975 92.192H21.1055C21.1482 92.7467 21.3242 93.1733 21.6335 93.472C21.9535 93.76 22.3428 93.904 22.8015 93.904C23.4842 93.904 23.9588 93.616 24.2255 93.04H27.1375C26.9882 93.6267 26.7162 94.1547 26.3215 94.624C25.9375 95.0933 25.4522 95.4613 24.8655 95.728C24.2788 95.9947 23.6228 96.128 22.8975 96.128C22.0228 96.128 21.2442 95.9413 20.5615 95.568C19.8788 95.1947 19.3455 94.6613 18.9615 93.968C18.5775 93.2747 18.3855 92.464 18.3855 91.536C18.3855 90.608 18.5722 89.7973 18.9455 89.104C19.3295 88.4107 19.8628 87.8773 20.5455 87.504C21.2282 87.1307 22.0122 86.944 22.8975 86.944C23.7615 86.944 24.5295 87.1253 25.2015 87.488C25.8735 87.8507 26.3962 88.368 26.7695 89.04C27.1535 89.712 27.3455 90.496 27.3455 91.392ZM24.5455 90.672C24.5455 90.2027 24.3855 89.8293 24.0655 89.552C23.7455 89.2747 23.3455 89.136 22.8655 89.136C22.4068 89.136 22.0175 89.2693 21.6975 89.536C21.3882 89.8027 21.1962 90.1813 21.1215 90.672H24.5455ZM32.4209 96.128C31.6422 96.128 30.9489 95.9947 30.3409 95.728C29.7329 95.4613 29.2529 95.0987 28.9009 94.64C28.5489 94.1707 28.3515 93.648 28.3089 93.072H31.0129C31.0449 93.3813 31.1889 93.632 31.4449 93.824C31.7009 94.016 32.0155 94.112 32.3889 94.112C32.7302 94.112 32.9915 94.048 33.1729 93.92C33.3649 93.7813 33.4609 93.6053 33.4609 93.392C33.4609 93.136 33.3275 92.9493 33.0609 92.832C32.7942 92.704 32.3622 92.5653 31.7649 92.416C31.1249 92.2667 30.5915 92.112 30.1649 91.952C29.7382 91.7813 29.3702 91.52 29.0609 91.168C28.7515 90.8053 28.5969 90.32 28.5969 89.712C28.5969 89.2 28.7355 88.736 29.0129 88.32C29.3009 87.8933 29.7169 87.5573 30.2609 87.312C30.8155 87.0667 31.4715 86.944 32.2289 86.944C33.3489 86.944 34.2289 87.2213 34.8689 87.776C35.5195 88.3307 35.8929 89.0667 35.9889 89.984H33.4609C33.4182 89.6747 33.2795 89.4293 33.0449 89.248C32.8209 89.0667 32.5222 88.976 32.1489 88.976C31.8289 88.976 31.5835 89.04 31.4129 89.168C31.2422 89.2853 31.1569 89.4507 31.1569 89.664C31.1569 89.92 31.2902 90.112 31.5569 90.24C31.8342 90.368 32.2609 90.496 32.8369 90.624C33.4982 90.7947 34.0369 90.9653 34.4529 91.136C34.8689 91.296 35.2315 91.5627 35.5409 91.936C35.8609 92.2987 36.0262 92.7893 36.0369 93.408C36.0369 93.9307 35.8875 94.4 35.5889 94.816C35.3009 95.2213 34.8795 95.5413 34.3249 95.776C33.7809 96.0107 33.1462 96.128 32.4209 96.128ZM42.6868 93.68V96H41.2948C40.3028 96 39.5294 95.76 38.9748 95.28C38.4201 94.7893 38.1428 93.9947 38.1428 92.896V89.344H37.0548V87.072H38.1428V84.896H40.8788V87.072H42.6708V89.344H40.8788V92.928C40.8788 93.1947 40.9428 93.3867 41.0708 93.504C41.1988 93.6213 41.4121 93.68 41.7108 93.68H42.6868ZM51.0908 89.248V91.52H44.0508V89.248H51.0908ZM60.484 94.016H56.292L55.62 96H52.756L56.82 84.768H59.988L64.052 96H61.156L60.484 94.016ZM59.78 91.904L58.388 87.792L57.012 91.904H59.78ZM68.0249 88.336C68.2915 87.92 68.6595 87.584 69.1289 87.328C69.5982 87.072 70.1475 86.944 70.7769 86.944C71.5129 86.944 72.1795 87.1307 72.7769 87.504C73.3742 87.8773 73.8435 88.4107 74.1849 89.104C74.5369 89.7973 74.7129 90.6027 74.7129 91.52C74.7129 92.4373 74.5369 93.248 74.1849 93.952C73.8435 94.6453 73.3742 95.184 72.7769 95.568C72.1795 95.9413 71.5129 96.128 70.7769 96.128C70.1582 96.128 69.6089 96 69.1289 95.744C68.6595 95.488 68.2915 95.1573 68.0249 94.752V100.256H65.2889V87.072H68.0249V88.336ZM71.9289 91.52C71.9289 90.8373 71.7369 90.304 71.3529 89.92C70.9795 89.5253 70.5155 89.328 69.9609 89.328C69.4169 89.328 68.9529 89.5253 68.5689 89.92C68.1955 90.3147 68.0089 90.8533 68.0089 91.536C68.0089 92.2187 68.1955 92.7573 68.5689 93.152C68.9529 93.5467 69.4169 93.744 69.9609 93.744C70.5049 93.744 70.9689 93.5467 71.3529 93.152C71.7369 92.7467 71.9289 92.2027 71.9289 91.52ZM77.5243 86.144C77.0443 86.144 76.6496 86.0053 76.3403 85.728C76.0416 85.44 75.8923 85.088 75.8923 84.672C75.8923 84.2453 76.0416 83.8933 76.3403 83.616C76.6496 83.328 77.0443 83.184 77.5243 83.184C77.9936 83.184 78.3776 83.328 78.6763 83.616C78.9856 83.8933 79.1403 84.2453 79.1403 84.672C79.1403 85.088 78.9856 85.44 78.6763 85.728C78.3776 86.0053 77.9936 86.144 77.5243 86.144ZM78.8843 87.072V96H76.1483V87.072H78.8843Z" fill="white"/>
</svg>
