<svg width="88" height="100" viewBox="0 0 88 100" fill="none" xmlns="http://www.w3.org/2000/svg">
<path fill-rule="evenodd" clip-rule="evenodd" d="M74.6942 26.7639L69.0124 34.7083L63.3306 26.7639H66.4285C66.1923 20.8611 61.3163 16.1389 55.3567 16.1389C50.3278 16.1389 46.063 19.5139 44.7155 24.1111C43.0762 23.5833 41.3814 23.25 39.6588 23.0972C39.8533 22.3611 40.1034 21.625 40.409 20.9167C41.2286 18.9861 42.3955 17.25 43.8819 15.7639C45.3684 14.2778 47.1049 13.0972 49.0358 12.2917C51.0363 11.4306 53.1617 11 55.3567 11C57.5516 11 59.677 11.4306 61.6775 12.2778C63.6084 13.0972 65.3449 14.2639 66.8314 15.75C68.3178 17.2361 69.4847 18.9722 70.3043 20.9028C71.0962 22.7639 71.5268 24.7361 71.5685 26.7639H74.6942Z" fill="white"/>
<path fill-rule="evenodd" clip-rule="evenodd" d="M66.748 70.9999V67.5832H47.1604C47.2993 67.5138 47.4382 67.4582 47.5772 67.3888C49.7026 66.3749 51.6614 65.0554 53.4118 63.4443C53.6479 63.2221 53.8702 63.0138 54.0786 62.8054C54.3147 62.5693 54.5648 62.3193 54.8009 62.0554C55.0788 61.7499 55.3566 61.4304 55.6067 61.111H66.748V57.6943L76.0555 64.3471L66.748 70.9999Z" fill="white"/>
<path fill-rule="evenodd" clip-rule="evenodd" d="M59.5242 46.3194C59.5242 49.2778 58.9408 52.1528 57.8016 54.8611C56.8292 57.1667 55.4678 59.2778 53.773 61.125C53.5507 61.3611 53.3284 61.5972 53.1062 61.8333C52.8978 62.0417 52.6894 62.2361 52.481 62.4444C50.8418 63.9583 49.008 65.1944 47.0076 66.1528C46.7298 66.2917 46.438 66.4167 46.1463 66.5417C46.1324 66.5417 46.1324 66.5556 46.1185 66.5556C44.4515 67.2639 42.6594 67.6111 40.8396 67.6111H11.9445V61.1528H38.7697C46.8826 61.1528 53.5368 54.6667 53.6479 46.5556C53.6479 46.4861 53.6479 46.4167 53.6479 46.3472C53.6479 37.4861 46.4519 30.2917 37.5889 30.2917C28.7259 30.2639 21.5299 37.4444 21.5299 46.3194H25.2529L18.5987 55.625L11.9445 46.3194H15.6675C15.6675 43.3611 16.2509 40.4861 17.3901 37.7778C18.5014 35.1667 20.0712 32.8194 22.0855 30.8056C24.0999 28.7917 26.4476 27.2083 29.0593 26.1111C31.7682 24.9722 34.6438 24.3889 37.6028 24.3889C38.2001 24.3889 38.7836 24.4167 39.3671 24.4583C41.0897 24.5972 42.7706 24.9306 44.4098 25.4722C44.9933 25.6667 45.5629 25.875 46.1324 26.125C48.7441 27.2361 51.0918 28.8056 53.1062 30.8194C55.1205 32.8333 56.7042 35.1806 57.8016 37.7917C58.9408 40.4861 59.5242 43.3611 59.5242 46.3194Z" fill="white"/>
<path d="M21.556 96.112C20.7347 96.112 19.9987 95.9787 19.348 95.712C18.6973 95.4453 18.1747 95.0507 17.78 94.528C17.396 94.0053 17.1933 93.376 17.172 92.64H20.084C20.1267 93.056 20.2707 93.376 20.516 93.6C20.7613 93.8133 21.0813 93.92 21.476 93.92C21.8813 93.92 22.2013 93.8293 22.436 93.648C22.6707 93.456 22.788 93.1947 22.788 92.864C22.788 92.5867 22.692 92.3573 22.5 92.176C22.3187 91.9947 22.0893 91.8453 21.812 91.728C21.5453 91.6107 21.1613 91.4773 20.66 91.328C19.9347 91.104 19.3427 90.88 18.884 90.656C18.4253 90.432 18.0307 90.1013 17.7 89.664C17.3693 89.2267 17.204 88.656 17.204 87.952C17.204 86.9067 17.5827 86.0907 18.34 85.504C19.0973 84.9067 20.084 84.608 21.3 84.608C22.5373 84.608 23.5347 84.9067 24.292 85.504C25.0493 86.0907 25.4547 86.912 25.508 87.968H22.548C22.5267 87.6053 22.3933 87.3227 22.148 87.12C21.9027 86.9067 21.588 86.8 21.204 86.8C20.8733 86.8 20.6067 86.8907 20.404 87.072C20.2013 87.2427 20.1 87.4933 20.1 87.824C20.1 88.1867 20.2707 88.4693 20.612 88.672C20.9533 88.8747 21.4867 89.0933 22.212 89.328C22.9373 89.5733 23.524 89.808 23.972 90.032C24.4307 90.256 24.8253 90.5813 25.156 91.008C25.4867 91.4347 25.652 91.984 25.652 92.656C25.652 93.296 25.4867 93.8773 25.156 94.4C24.836 94.9227 24.3667 95.3387 23.748 95.648C23.1293 95.9573 22.3987 96.112 21.556 96.112ZM26.7918 91.536C26.7918 90.608 26.9784 89.7973 27.3518 89.104C27.7358 88.4107 28.2638 87.8773 28.9358 87.504C29.6184 87.1307 30.3971 86.944 31.2718 86.944C32.3918 86.944 33.3251 87.2373 34.0718 87.824C34.8291 88.4107 35.3251 89.2373 35.5598 90.304H32.6478C32.4024 89.6213 31.9278 89.28 31.2238 89.28C30.7224 89.28 30.3224 89.4773 30.0238 89.872C29.7251 90.256 29.5758 90.8107 29.5758 91.536C29.5758 92.2613 29.7251 92.8213 30.0238 93.216C30.3224 93.6 30.7224 93.792 31.2238 93.792C31.9278 93.792 32.4024 93.4507 32.6478 92.768H35.5598C35.3251 93.8133 34.8291 94.6347 34.0718 95.232C33.3144 95.8293 32.3811 96.128 31.2718 96.128C30.3971 96.128 29.6184 95.9413 28.9358 95.568C28.2638 95.1947 27.7358 94.6613 27.3518 93.968C26.9784 93.2747 26.7918 92.464 26.7918 91.536ZM39.7593 88.56C40.0793 88.0693 40.4793 87.6853 40.9593 87.408C41.4393 87.12 41.9726 86.976 42.5593 86.976V89.872H41.8073C41.1246 89.872 40.6126 90.0213 40.2713 90.32C39.9299 90.608 39.7593 91.12 39.7593 91.856V96H37.0233V87.072H39.7593V88.56ZM52.683 87.072V96H49.947V94.784C49.6697 95.1787 49.291 95.4987 48.811 95.744C48.3417 95.9787 47.819 96.096 47.243 96.096C46.5603 96.096 45.9577 95.9467 45.435 95.648C44.9123 95.3387 44.507 94.896 44.219 94.32C43.931 93.744 43.787 93.0667 43.787 92.288V87.072H46.507V91.92C46.507 92.5173 46.6617 92.9813 46.971 93.312C47.2803 93.6427 47.6963 93.808 48.219 93.808C48.7523 93.808 49.1737 93.6427 49.483 93.312C49.7923 92.9813 49.947 92.5173 49.947 91.92V87.072H52.683ZM66.0403 86.976C67.1496 86.976 68.0296 87.312 68.6803 87.984C69.3416 88.656 69.6723 89.5893 69.6723 90.784V96H66.9523V91.152C66.9523 90.576 66.7976 90.1333 66.4883 89.824C66.1896 89.504 65.7736 89.344 65.2403 89.344C64.7069 89.344 64.2856 89.504 63.9763 89.824C63.6776 90.1333 63.5283 90.576 63.5283 91.152V96H60.8083V91.152C60.8083 90.576 60.6536 90.1333 60.3443 89.824C60.0456 89.504 59.6296 89.344 59.0963 89.344C58.5629 89.344 58.1416 89.504 57.8323 89.824C57.5336 90.1333 57.3843 90.576 57.3843 91.152V96H54.6483V87.072H57.3843V88.192C57.6616 87.8187 58.0243 87.5253 58.4723 87.312C58.9203 87.088 59.4269 86.976 59.9923 86.976C60.6643 86.976 61.2616 87.12 61.7843 87.408C62.3176 87.696 62.7336 88.1067 63.0323 88.64C63.3416 88.1493 63.7629 87.7493 64.2963 87.44C64.8296 87.1307 65.4109 86.976 66.0403 86.976Z" fill="white"/>
</svg>
