<svg width="89" height="101" viewBox="0 0 89 101" fill="none" xmlns="http://www.w3.org/2000/svg">
<path d="M74.9182 15.7749C74.4816 13.4829 72.7081 11.6276 70.4434 11.1364C70.3343 11.1091 70.2252 11.1091 70.0887 11.0819C70.0615 11.0819 70.0342 11.0273 70.0069 11H19.966C19.9387 11.0273 19.9114 11.0819 19.8568 11.0819C17.5921 11.4638 15.6822 13.2647 15.1638 15.5566C15.1365 15.6385 15.0819 15.7476 15.0273 15.8568V66.0341C15.0546 66.0887 15.1092 66.116 15.1092 66.1705C15.6549 68.6808 17.1829 70.236 19.6658 70.8636C19.7477 70.8909 19.8022 70.9454 19.8568 71H70.0887C70.1433 70.9727 70.1706 70.9181 70.2252 70.8909C72.7081 70.3179 74.2361 68.8172 74.8636 66.3342C74.8909 66.2524 74.8636 66.1433 74.8909 66.0614C74.8909 66.0341 74.9455 66.0068 74.9728 65.9795V15.9386C74.9728 15.884 74.9182 15.8568 74.9182 15.7749ZM49.8159 44.2606H49.5158C47.2511 44.2606 44.9591 44.2606 42.6945 44.2606C42.5853 44.2606 42.4762 44.2606 42.367 44.2606C42.367 44.2879 42.3398 44.2879 42.3398 44.3151C42.3398 44.4243 42.3398 44.5334 42.3398 44.6426V65.6794H36.3643V44.2879H28.8609V39.513H49.7886V44.2606H49.8159ZM69.9523 58.5307C69.8977 59.4584 69.7613 60.3588 69.3793 61.2319C69.2702 61.5048 69.1883 61.7503 69.0519 62.0232C68.5608 63.06 67.7422 63.7967 66.7872 64.397C65.6958 65.0791 64.4953 65.4611 63.2402 65.7067C61.8486 65.9795 60.4571 66.0614 59.0383 66.0068C58.3561 65.9795 57.674 65.9795 56.9919 65.8977C55.3821 65.7067 53.7995 65.352 52.3261 64.6426C52.2443 64.6153 52.1351 64.4789 52.1351 64.397C52.1351 62.6235 52.1351 60.8499 52.1351 59.0764C52.1351 59.0491 52.1351 59.0218 52.1351 58.9673C52.5717 59.2674 53.0082 59.5675 53.4448 59.8131C54.5089 60.4407 55.6822 60.8772 56.8827 61.1501C57.9196 61.3956 58.9564 61.4229 59.9932 61.3684C60.7845 61.3411 61.5758 61.1501 62.2852 60.7954C62.9128 60.4679 63.4312 60.0314 63.5676 59.2947C63.704 58.6398 63.6494 57.985 63.2675 57.412C62.7218 56.5935 61.9578 56.075 61.1119 55.6385C60.157 55.1746 59.202 54.7654 58.2197 54.3288C56.7736 53.6739 55.3548 52.9645 54.1815 51.8731C53.2265 50.9727 52.5171 49.9086 52.1897 48.6262C51.9987 47.8622 51.9441 47.0982 51.9714 46.3342C51.9987 44.4516 52.6808 42.8417 54.0178 41.5048C55.1092 40.4134 56.4462 39.7585 57.9196 39.3765C58.9291 39.131 59.9387 38.94 60.9755 38.9127C61.7122 38.9127 62.4489 38.8308 63.1583 38.8581C64.277 38.8854 65.3684 38.94 66.4598 39.2128C67.1692 39.4038 67.9059 39.5948 68.6153 39.7585C68.7518 39.7858 68.8063 39.8677 68.8063 40.0314C68.8063 41.7231 68.8063 43.442 68.8063 45.1337C68.8063 45.1883 68.8063 45.2428 68.7791 45.3247C68.5608 45.1883 68.3698 45.0791 68.1788 44.97C67.3057 44.4789 66.378 44.1514 65.423 43.9059C64.3589 43.6603 63.2947 43.4966 62.2033 43.5239C61.4666 43.5512 60.7027 43.6603 60.0205 43.9059C59.1747 44.206 58.4926 44.6971 58.1924 45.5975C57.9469 46.307 58.1379 46.9072 58.5744 47.4802C59.1201 48.1896 59.8568 48.6808 60.6481 49.0628C61.7122 49.5812 62.8036 50.0177 63.8404 50.5089C65.041 51.0819 66.2415 51.6548 67.2511 52.5007C68.1242 53.2374 68.9155 54.0559 69.352 55.1473C69.5976 55.8022 69.8159 56.4843 69.8159 57.221C69.925 57.6576 69.9796 58.0941 69.9523 58.5307Z" fill="white"/>
<path d="M9.572 84.768V86.96H6.596V96H3.86V86.96H0.884V84.768H9.572ZM20.0651 87.072L14.4651 100.24H11.5211L13.5691 95.696L9.93712 87.072H12.9931L15.0571 92.656L17.1051 87.072H20.0651ZM23.7905 88.336C24.0572 87.92 24.4252 87.584 24.8945 87.328C25.3638 87.072 25.9132 86.944 26.5425 86.944C27.2785 86.944 27.9452 87.1307 28.5425 87.504C29.1398 87.8773 29.6092 88.4107 29.9505 89.104C30.3025 89.7973 30.4785 90.6027 30.4785 91.52C30.4785 92.4373 30.3025 93.248 29.9505 93.952C29.6092 94.6453 29.1398 95.184 28.5425 95.568C27.9452 95.9413 27.2785 96.128 26.5425 96.128C25.9238 96.128 25.3745 96 24.8945 95.744C24.4252 95.488 24.0572 95.1573 23.7905 94.752V100.256H21.0545V87.072H23.7905V88.336ZM27.6945 91.52C27.6945 90.8373 27.5025 90.304 27.1185 89.92C26.7452 89.5253 26.2812 89.328 25.7265 89.328C25.1825 89.328 24.7185 89.5253 24.3345 89.92C23.9612 90.3147 23.7745 90.8533 23.7745 91.536C23.7745 92.2187 23.9612 92.7573 24.3345 93.152C24.7185 93.5467 25.1825 93.744 25.7265 93.744C26.2705 93.744 26.7345 93.5467 27.1185 93.152C27.5025 92.7467 27.6945 92.2027 27.6945 91.52ZM40.3299 91.392C40.3299 91.648 40.3139 91.9147 40.2819 92.192H34.0899C34.1325 92.7467 34.3085 93.1733 34.6179 93.472C34.9379 93.76 35.3272 93.904 35.7859 93.904C36.4685 93.904 36.9432 93.616 37.2099 93.04H40.1219C39.9725 93.6267 39.7005 94.1547 39.3059 94.624C38.9219 95.0933 38.4365 95.4613 37.8499 95.728C37.2632 95.9947 36.6072 96.128 35.8819 96.128C35.0072 96.128 34.2285 95.9413 33.5459 95.568C32.8632 95.1947 32.3299 94.6613 31.9459 93.968C31.5619 93.2747 31.3699 92.464 31.3699 91.536C31.3699 90.608 31.5565 89.7973 31.9299 89.104C32.3139 88.4107 32.8472 87.8773 33.5299 87.504C34.2125 87.1307 34.9965 86.944 35.8819 86.944C36.7459 86.944 37.5139 87.1253 38.1859 87.488C38.8579 87.8507 39.3805 88.368 39.7539 89.04C40.1379 89.712 40.3299 90.496 40.3299 91.392ZM37.5299 90.672C37.5299 90.2027 37.3699 89.8293 37.0499 89.552C36.7299 89.2747 36.3299 89.136 35.8499 89.136C35.3912 89.136 35.0019 89.2693 34.6819 89.536C34.3725 89.8027 34.1805 90.1813 34.1059 90.672H37.5299ZM45.8373 96.112C45.0159 96.112 44.2799 95.9787 43.6293 95.712C42.9786 95.4453 42.4559 95.0507 42.0613 94.528C41.6773 94.0053 41.4746 93.376 41.4533 92.64H44.3653C44.4079 93.056 44.5519 93.376 44.7973 93.6C45.0426 93.8133 45.3626 93.92 45.7573 93.92C46.1626 93.92 46.4826 93.8293 46.7173 93.648C46.9519 93.456 47.0693 93.1947 47.0693 92.864C47.0693 92.5867 46.9733 92.3573 46.7813 92.176C46.5999 91.9947 46.3706 91.8453 46.0933 91.728C45.8266 91.6107 45.4426 91.4773 44.9413 91.328C44.2159 91.104 43.6239 90.88 43.1653 90.656C42.7066 90.432 42.3119 90.1013 41.9813 89.664C41.6506 89.2267 41.4853 88.656 41.4853 87.952C41.4853 86.9067 41.8639 86.0907 42.6213 85.504C43.3786 84.9067 44.3653 84.608 45.5813 84.608C46.8186 84.608 47.8159 84.9067 48.5733 85.504C49.3306 86.0907 49.7359 86.912 49.7893 87.968H46.8293C46.8079 87.6053 46.6746 87.3227 46.4293 87.12C46.1839 86.9067 45.8693 86.8 45.4852 86.8C45.1546 86.8 44.8879 86.8907 44.6853 87.072C44.4826 87.2427 44.3813 87.4933 44.3813 87.824C44.3813 88.1867 44.5519 88.4693 44.8932 88.672C45.2346 88.8747 45.7679 89.0933 46.4933 89.328C47.2186 89.5733 47.8053 89.808 48.2533 90.032C48.7119 90.256 49.1066 90.5813 49.4373 91.008C49.7679 91.4347 49.9333 91.984 49.9333 92.656C49.9333 93.296 49.7679 93.8773 49.4373 94.4C49.1173 94.9227 48.6479 95.3387 48.0293 95.648C47.4106 95.9573 46.6799 96.112 45.8373 96.112ZM51.073 91.536C51.073 90.608 51.2597 89.7973 51.633 89.104C52.017 88.4107 52.545 87.8773 53.217 87.504C53.8997 87.1307 54.6783 86.944 55.553 86.944C56.673 86.944 57.6063 87.2373 58.353 87.824C59.1103 88.4107 59.6063 89.2373 59.841 90.304H56.929C56.6837 89.6213 56.209 89.28 55.505 89.28C55.0037 89.28 54.6037 89.4773 54.305 89.872C54.0063 90.256 53.857 90.8107 53.857 91.536C53.857 92.2613 54.0063 92.8213 54.305 93.216C54.6037 93.6 55.0037 93.792 55.505 93.792C56.209 93.792 56.6837 93.4507 56.929 92.768H59.841C59.6063 93.8133 59.1103 94.6347 58.353 95.232C57.5957 95.8293 56.6623 96.128 55.553 96.128C54.6783 96.128 53.8997 95.9413 53.217 95.568C52.545 95.1947 52.017 94.6613 51.633 93.968C51.2597 93.2747 51.073 92.464 51.073 91.536ZM64.0405 88.56C64.3605 88.0693 64.7605 87.6853 65.2405 87.408C65.7205 87.12 66.2538 86.976 66.8405 86.976V89.872H66.0885C65.4058 89.872 64.8938 90.0213 64.5525 90.32C64.2112 90.608 64.0405 91.12 64.0405 91.856V96H61.3045V87.072H64.0405V88.56ZM69.5243 86.144C69.0443 86.144 68.6496 86.0053 68.3403 85.728C68.0416 85.44 67.8923 85.088 67.8923 84.672C67.8923 84.2453 68.0416 83.8933 68.3403 83.616C68.6496 83.328 69.0443 83.184 69.5243 83.184C69.9936 83.184 70.3776 83.328 70.6763 83.616C70.9856 83.8933 71.1403 84.2453 71.1403 84.672C71.1403 85.088 70.9856 85.44 70.6763 85.728C70.3776 86.0053 69.9936 86.144 69.5243 86.144ZM70.8843 87.072V96H68.1483V87.072H70.8843ZM75.603 88.336C75.8697 87.92 76.2377 87.584 76.707 87.328C77.1763 87.072 77.7257 86.944 78.355 86.944C79.091 86.944 79.7577 87.1307 80.355 87.504C80.9523 87.8773 81.4217 88.4107 81.763 89.104C82.115 89.7973 82.291 90.6027 82.291 91.52C82.291 92.4373 82.115 93.248 81.763 93.952C81.4217 94.6453 80.9523 95.184 80.355 95.568C79.7577 95.9413 79.091 96.128 78.355 96.128C77.7363 96.128 77.187 96 76.707 95.744C76.2377 95.488 75.8697 95.1573 75.603 94.752V100.256H72.867V87.072H75.603V88.336ZM79.507 91.52C79.507 90.8373 79.315 90.304 78.931 89.92C78.5577 89.5253 78.0937 89.328 77.539 89.328C76.995 89.328 76.531 89.5253 76.147 89.92C75.7737 90.3147 75.587 90.8533 75.587 91.536C75.587 92.2187 75.7737 92.7573 76.147 93.152C76.531 93.5467 76.995 93.744 77.539 93.744C78.083 93.744 78.547 93.5467 78.931 93.152C79.315 92.7467 79.507 92.2027 79.507 91.52ZM88.7024 93.68V96H87.3104C86.3184 96 85.545 95.76 84.9904 95.28C84.4357 94.7893 84.1584 93.9947 84.1584 92.896V89.344H83.0704V87.072H84.1584V84.896H86.8944V87.072H88.6864V89.344H86.8944V92.928C86.8944 93.1947 86.9584 93.3867 87.0864 93.504C87.2144 93.6213 87.4277 93.68 87.7264 93.68H88.7024Z" fill="white"/>
</svg>
